<svg xmlns="http://www.w3.org/2000/svg" width="1024" height="1024" viewBox="0 0 1024 1024" shape-rendering="crispEdges"><rect x="0" y="0" width="64" height="32" fill="#3fae46"/><rect x="64" y="0" width="32" height="32" fill="#ffffff"/><rect x="96" y="0" width="384" height="32" fill="#3fae46"/><rect x="480" y="0" width="32" height="32" fill="#ffffff"/><rect x="512" y="0" width="416" height="32" fill="#3fae46"/><rect x="928" y="0" width="32" height="32" fill="#ffffff"/><rect x="960" y="0" width="64" height="32" fill="#3fae46"/><rect x="0" y="32" width="64" height="32" fill="#3fae46"/><rect x="64" y="32" width="32" height="32" fill="#ffffff"/><rect x="96" y="32" width="384" height="32" fill="#3fae46"/><rect x="480" y="32" width="32" height="32" fill="#ffffff"/><rect x="512" y="32" width="416" height="32" fill="#3fae46"/><rect x="928" y="32" width="32" height="32" fill="#ffffff"/><rect x="960" y="32" width="64" height="32" fill="#3fae46"/><rect x="0" y="64" width="64" height="32" fill="#3fae46"/><rect x="64" y="64" width="32" height="32" fill="#ffffff"/><rect x="96" y="64" width="384" height="32" fill="#3fae46"/><rect x="480" y="64" width="32" height="32" fill="#ffffff"/><rect x="512" y="64" width="416" height="32" fill="#3fae46"/><rect x="928" y="64" width="32" height="32" fill="#ffffff"/><rect x="960" y="64" width="64" height="32" fill="#3fae46"/><rect x="0" y="96" width="64" height="32" fill="#3fae46"/><rect x="64" y="96" width="32" height="32" fill="#ffffff"/><rect x="96" y="96" width="32" height="32" fill="#3fae46"/><rect x="128" y="96" width="96" height="32" fill="#2f6fe0"/><rect x="224" y="96" width="256" height="32" fill="#1a0303"/><rect x="480" y="96" width="32" height="32" fill="#2f6fe0"/><rect x="512" y="96" width="256" height="32" fill="#1a0303"/><rect x="768" y="96" width="128" height="32" fill="#d62f2f"/><rect x="896" y="96" width="32" height="32" fill="#3fae46"/><rect x="928" y="96" width="32" height="32" fill="#ffffff"/><rect x="960" y="96" width="64" height="32" fill="#3fae46"/><rect x="0" y="128" width="64" height="32" fill="#3fae46"/><rect x="64" y="128" width="32" height="32" fill="#ffffff"/><rect x="96" y="128" width="32" height="32" fill="#3fae46"/><rect x="128" y="128" width="32" height="32" fill="#2f6fe0"/><rect x="160" y="128" width="64" height="32" fill="#3d0b0b"/><rect x="224" y="128" width="32" height="32" fill="#1a0303"/><rect x="256" y="128" width="192" height="32" fill="#fff176"/><rect x="448" y="128" width="32" height="32" fill="#1a0303"/><rect x="480" y="128" width="32" height="32" fill="#3d0b0b"/><rect x="512" y="128" width="32" height="32" fill="#1a0303"/><rect x="544" y="128" width="192" height="32" fill="#fff176"/><rect x="736" y="128" width="32" height="32" fill="#1a0303"/><rect x="768" y="128" width="96" height="32" fill="#3d0b0b"/><rect x="864" y="128" width="32" height="32" fill="#d62f2f"/><rect x="896" y="128" width="32" height="32" fill="#3fae46"/><rect x="928" y="128" width="32" height="32" fill="#ffffff"/><rect x="960" y="128" width="64" height="32" fill="#3fae46"/><rect x="0" y="160" width="64" height="32" fill="#3fae46"/><rect x="64" y="160" width="32" height="32" fill="#ffffff"/><rect x="96" y="160" width="32" height="32" fill="#3fae46"/><rect x="128" y="160" width="32" height="32" fill="#2f6fe0"/><rect x="160" y="160" width="64" height="32" fill="#3d0b0b"/><rect x="224" y="160" width="32" height="32" fill="#1a0303"/><rect x="256" y="160" width="192" height="32" fill="#fff176"/><rect x="448" y="160" width="32" height="32" fill="#1a0303"/><rect x="480" y="160" width="32" height="32" fill="#3d0b0b"/><rect x="512" y="160" width="32" height="32" fill="#1a0303"/><rect x="544" y="160" width="192" height="32" fill="#fff176"/><rect x="736" y="160" width="32" height="32" fill="#1a0303"/><rect x="768" y="160" width="96" height="32" fill="#3d0b0b"/><rect x="864" y="160" width="32" height="32" fill="#d62f2f"/><rect x="896" y="160" width="32" height="32" fill="#3fae46"/><rect x="928" y="160" width="32" height="32" fill="#ffffff"/><rect x="960" y="160" width="64" height="32" fill="#3fae46"/><rect x="0" y="192" width="64" height="32" fill="#3fae46"/><rect x="64" y="192" width="32" height="32" fill="#ffffff"/><rect x="96" y="192" width="32" height="32" fill="#3fae46"/><rect x="128" y="192" width="32" height="32" fill="#2f6fe0"/><rect x="160" y="192" width="64" height="32" fill="#3d0b0b"/><rect x="224" y="192" width="32" height="32" fill="#1a0303"/><rect x="256" y="192" width="64" height="32" fill="#fff176"/><rect x="320" y="192" width="160" height="32" fill="#1a0303"/><rect x="480" y="192" width="32" height="32" fill="#3d0b0b"/><rect x="512" y="192" width="32" height="32" fill="#1a0303"/><rect x="544" y="192" width="64" height="32" fill="#fff176"/><rect x="608" y="192" width="160" height="32" fill="#1a0303"/><rect x="768" y="192" width="96" height="32" fill="#3d0b0b"/><rect x="864" y="192" width="32" height="32" fill="#d62f2f"/><rect x="896" y="192" width="32" height="32" fill="#3fae46"/><rect x="928" y="192" width="32" height="32" fill="#ffffff"/><rect x="960" y="192" width="64" height="32" fill="#3fae46"/><rect x="0" y="224" width="64" height="32" fill="#3fae46"/><rect x="64" y="224" width="32" height="32" fill="#ffffff"/><rect x="96" y="224" width="32" height="32" fill="#3fae46"/><rect x="128" y="224" width="32" height="32" fill="#2f6fe0"/><rect x="160" y="224" width="32" height="32" fill="#3d0b0b"/><rect x="192" y="224" width="64" height="32" fill="#1a0303"/><rect x="256" y="224" width="64" height="32" fill="#ffd23f"/><rect x="320" y="224" width="96" height="32" fill="#1a0303"/><rect x="416" y="224" width="64" height="32" fill="#3d0b0b"/><rect x="480" y="224" width="64" height="32" fill="#1a0303"/><rect x="544" y="224" width="64" height="32" fill="#ffd23f"/><rect x="608" y="224" width="96" height="32" fill="#1a0303"/><rect x="704" y="224" width="160" height="32" fill="#3d0b0b"/><rect x="864" y="224" width="32" height="32" fill="#d62f2f"/><rect x="896" y="224" width="32" height="32" fill="#3fae46"/><rect x="928" y="224" width="32" height="32" fill="#ffffff"/><rect x="960" y="224" width="64" height="32" fill="#3fae46"/><rect x="0" y="256" width="64" height="32" fill="#3fae46"/><rect x="64" y="256" width="32" height="32" fill="#ffffff"/><rect x="96" y="256" width="32" height="32" fill="#3fae46"/><rect x="128" y="256" width="32" height="32" fill="#2f6fe0"/><rect x="160" y="256" width="32" height="32" fill="#3d0b0b"/><rect x="192" y="256" width="32" height="32" fill="#1a0303"/><rect x="224" y="256" width="160" height="32" fill="#ffd23f"/><rect x="384" y="256" width="32" height="32" fill="#1a0303"/><rect x="416" y="256" width="64" height="32" fill="#3d0b0b"/><rect x="480" y="256" width="32" height="32" fill="#1a0303"/><rect x="512" y="256" width="160" height="32" fill="#ffd23f"/><rect x="672" y="256" width="32" height="32" fill="#1a0303"/><rect x="704" y="256" width="160" height="32" fill="#3d0b0b"/><rect x="864" y="256" width="32" height="32" fill="#d62f2f"/><rect x="896" y="256" width="32" height="32" fill="#3fae46"/><rect x="928" y="256" width="32" height="32" fill="#ffffff"/><rect x="960" y="256" width="64" height="32" fill="#3fae46"/><rect x="0" y="288" width="64" height="32" fill="#3fae46"/><rect x="64" y="288" width="32" height="32" fill="#ffffff"/><rect x="96" y="288" width="32" height="32" fill="#3fae46"/><rect x="128" y="288" width="32" height="32" fill="#2f6fe0"/><rect x="160" y="288" width="32" height="32" fill="#3d0b0b"/><rect x="192" y="288" width="32" height="32" fill="#1a0303"/><rect x="224" y="288" width="160" height="32" fill="#ffd23f"/><rect x="384" y="288" width="32" height="32" fill="#1a0303"/><rect x="416" y="288" width="64" height="32" fill="#3d0b0b"/><rect x="480" y="288" width="32" height="32" fill="#1a0303"/><rect x="512" y="288" width="160" height="32" fill="#ffd23f"/><rect x="672" y="288" width="32" height="32" fill="#1a0303"/><rect x="704" y="288" width="160" height="32" fill="#3d0b0b"/><rect x="864" y="288" width="32" height="32" fill="#d62f2f"/><rect x="896" y="288" width="32" height="32" fill="#3fae46"/><rect x="928" y="288" width="32" height="32" fill="#ffffff"/><rect x="960" y="288" width="64" height="32" fill="#3fae46"/><rect x="0" y="320" width="64" height="32" fill="#3fae46"/><rect x="64" y="320" width="32" height="32" fill="#ffffff"/><rect x="96" y="320" width="32" height="32" fill="#3fae46"/><rect x="128" y="320" width="32" height="32" fill="#2f6fe0"/><rect x="160" y="320" width="32" height="32" fill="#3d0b0b"/><rect x="192" y="320" width="32" height="32" fill="#1a0303"/><rect x="224" y="320" width="64" height="32" fill="#ff9f1a"/><rect x="288" y="320" width="128" height="32" fill="#1a0303"/><rect x="416" y="320" width="64" height="32" fill="#3d0b0b"/><rect x="480" y="320" width="32" height="32" fill="#1a0303"/><rect x="512" y="320" width="64" height="32" fill="#ff9f1a"/><rect x="576" y="320" width="128" height="32" fill="#1a0303"/><rect x="704" y="320" width="160" height="32" fill="#3d0b0b"/><rect x="864" y="320" width="32" height="32" fill="#d62f2f"/><rect x="896" y="320" width="32" height="32" fill="#3fae46"/><rect x="928" y="320" width="32" height="32" fill="#ffffff"/><rect x="960" y="320" width="64" height="32" fill="#3fae46"/><rect x="0" y="352" width="64" height="32" fill="#3fae46"/><rect x="64" y="352" width="32" height="32" fill="#ffffff"/><rect x="96" y="352" width="32" height="32" fill="#3fae46"/><rect x="128" y="352" width="32" height="32" fill="#2f6fe0"/><rect x="160" y="352" width="32" height="32" fill="#3d0b0b"/><rect x="192" y="352" width="32" height="32" fill="#1a0303"/><rect x="224" y="352" width="64" height="32" fill="#ff9f1a"/><rect x="288" y="352" width="32" height="32" fill="#1a0303"/><rect x="320" y="352" width="160" height="32" fill="#3d0b0b"/><rect x="480" y="352" width="32" height="32" fill="#1a0303"/><rect x="512" y="352" width="64" height="32" fill="#ff9f1a"/><rect x="576" y="352" width="32" height="32" fill="#1a0303"/><rect x="608" y="352" width="256" height="32" fill="#3d0b0b"/><rect x="864" y="352" width="32" height="32" fill="#d62f2f"/><rect x="896" y="352" width="32" height="32" fill="#3fae46"/><rect x="928" y="352" width="32" height="32" fill="#ffffff"/><rect x="960" y="352" width="64" height="32" fill="#3fae46"/><rect x="0" y="384" width="64" height="32" fill="#3fae46"/><rect x="64" y="384" width="32" height="32" fill="#ffffff"/><rect x="96" y="384" width="32" height="32" fill="#3fae46"/><rect x="128" y="384" width="32" height="32" fill="#2f6fe0"/><rect x="160" y="384" width="32" height="32" fill="#3d0b0b"/><rect x="192" y="384" width="32" height="32" fill="#1a0303"/><rect x="224" y="384" width="64" height="32" fill="#ff9f1a"/><rect x="288" y="384" width="32" height="32" fill="#1a0303"/><rect x="320" y="384" width="160" height="32" fill="#3d0b0b"/><rect x="480" y="384" width="32" height="32" fill="#1a0303"/><rect x="512" y="384" width="64" height="32" fill="#ff9f1a"/><rect x="576" y="384" width="32" height="32" fill="#1a0303"/><rect x="608" y="384" width="256" height="32" fill="#3d0b0b"/><rect x="864" y="384" width="32" height="32" fill="#d62f2f"/><rect x="896" y="384" width="32" height="32" fill="#3fae46"/><rect x="928" y="384" width="32" height="32" fill="#ffffff"/><rect x="960" y="384" width="64" height="32" fill="#3fae46"/><rect x="0" y="416" width="64" height="32" fill="#3fae46"/><rect x="64" y="416" width="32" height="32" fill="#ffffff"/><rect x="96" y="416" width="32" height="32" fill="#3fae46"/><rect x="128" y="416" width="64" height="32" fill="#2f6fe0"/><rect x="192" y="416" width="128" height="32" fill="#1a0303"/><rect x="320" y="416" width="160" height="32" fill="#2f6fe0"/><rect x="480" y="416" width="128" height="32" fill="#1a0303"/><rect x="608" y="416" width="288" height="32" fill="#d62f2f"/><rect x="896" y="416" width="32" height="32" fill="#3fae46"/><rect x="928" y="416" width="32" height="32" fill="#ffffff"/><rect x="960" y="416" width="64" height="32" fill="#3fae46"/><rect x="0" y="448" width="64" height="32" fill="#3fae46"/><rect x="64" y="448" width="32" height="32" fill="#ffffff"/><rect x="96" y="448" width="384" height="32" fill="#3fae46"/><rect x="480" y="448" width="32" height="32" fill="#ffffff"/><rect x="512" y="448" width="416" height="32" fill="#3fae46"/><rect x="928" y="448" width="32" height="32" fill="#ffffff"/><rect x="960" y="448" width="64" height="32" fill="#3fae46"/><rect x="0" y="480" width="64" height="32" fill="#3fae46"/><rect x="64" y="480" width="32" height="32" fill="#ffffff"/><rect x="96" y="480" width="384" height="32" fill="#3fae46"/><rect x="480" y="480" width="32" height="32" fill="#ffffff"/><rect x="512" y="480" width="224" height="32" fill="#3fae46"/><rect x="736" y="480" width="128" height="32" fill="#8a4516"/><rect x="864" y="480" width="64" height="32" fill="#3fae46"/><rect x="928" y="480" width="32" height="32" fill="#ffffff"/><rect x="960" y="480" width="64" height="32" fill="#3fae46"/><rect x="0" y="512" width="64" height="32" fill="#3fae46"/><rect x="64" y="512" width="32" height="32" fill="#ffffff"/><rect x="96" y="512" width="384" height="32" fill="#3fae46"/><rect x="480" y="512" width="32" height="32" fill="#ffffff"/><rect x="512" y="512" width="192" height="32" fill="#3fae46"/><rect x="704" y="512" width="32" height="32" fill="#8a4516"/><rect x="736" y="512" width="128" height="32" fill="#ffffff"/><rect x="864" y="512" width="32" height="32" fill="#8a4516"/><rect x="896" y="512" width="32" height="32" fill="#3fae46"/><rect x="928" y="512" width="32" height="32" fill="#ffffff"/><rect x="960" y="512" width="64" height="32" fill="#3fae46"/><rect x="0" y="544" width="64" height="32" fill="#3fae46"/><rect x="64" y="544" width="32" height="32" fill="#ffffff"/><rect x="96" y="544" width="384" height="32" fill="#3fae46"/><rect x="480" y="544" width="32" height="32" fill="#ffffff"/><rect x="512" y="544" width="192" height="32" fill="#3fae46"/><rect x="704" y="544" width="192" height="32" fill="#8a4516"/><rect x="896" y="544" width="32" height="32" fill="#3fae46"/><rect x="928" y="544" width="32" height="32" fill="#ffffff"/><rect x="960" y="544" width="64" height="32" fill="#3fae46"/><rect x="0" y="576" width="64" height="32" fill="#3fae46"/><rect x="64" y="576" width="32" height="32" fill="#ffffff"/><rect x="96" y="576" width="384" height="32" fill="#3fae46"/><rect x="480" y="576" width="64" height="32" fill="#d32f2f"/><rect x="544" y="576" width="192" height="32" fill="#3fae46"/><rect x="736" y="576" width="128" height="32" fill="#8a4516"/><rect x="864" y="576" width="64" height="32" fill="#3fae46"/><rect x="928" y="576" width="32" height="32" fill="#ffffff"/><rect x="960" y="576" width="64" height="32" fill="#3fae46"/><rect x="0" y="608" width="64" height="32" fill="#3fae46"/><rect x="64" y="608" width="32" height="32" fill="#ffffff"/><rect x="96" y="608" width="96" height="32" fill="#3fae46"/><rect x="192" y="608" width="64" height="32" fill="#2b7bd8"/><rect x="256" y="608" width="192" height="32" fill="#3fae46"/><rect x="448" y="608" width="96" height="32" fill="#d32f2f"/><rect x="544" y="608" width="32" height="32" fill="#cfd8dc"/><rect x="576" y="608" width="352" height="32" fill="#3fae46"/><rect x="928" y="608" width="32" height="32" fill="#ffffff"/><rect x="960" y="608" width="64" height="32" fill="#3fae46"/><rect x="0" y="640" width="64" height="32" fill="#3fae46"/><rect x="64" y="640" width="32" height="32" fill="#ffffff"/><rect x="96" y="640" width="64" height="32" fill="#3fae46"/><rect x="160" y="640" width="96" height="32" fill="#2b7bd8"/><rect x="256" y="640" width="32" height="32" fill="#cfd8dc"/><rect x="288" y="640" width="192" height="32" fill="#3fae46"/><rect x="480" y="640" width="64" height="32" fill="#e6a46b"/><rect x="544" y="640" width="224" height="32" fill="#3fae46"/><rect x="768" y="640" width="64" height="32" fill="#2b7bd8"/><rect x="832" y="640" width="96" height="32" fill="#3fae46"/><rect x="928" y="640" width="32" height="32" fill="#ffffff"/><rect x="960" y="640" width="64" height="32" fill="#3fae46"/><rect x="0" y="672" width="64" height="32" fill="#3fae46"/><rect x="64" y="672" width="32" height="32" fill="#ffffff"/><rect x="96" y="672" width="96" height="32" fill="#3fae46"/><rect x="192" y="672" width="64" height="32" fill="#c98a52"/><rect x="256" y="672" width="192" height="32" fill="#3fae46"/><rect x="448" y="672" width="128" height="32" fill="#ffffff"/><rect x="576" y="672" width="160" height="32" fill="#3fae46"/><rect x="736" y="672" width="32" height="32" fill="#cfd8dc"/><rect x="768" y="672" width="96" height="32" fill="#2b7bd8"/><rect x="864" y="672" width="64" height="32" fill="#3fae46"/><rect x="928" y="672" width="32" height="32" fill="#ffffff"/><rect x="960" y="672" width="64" height="32" fill="#3fae46"/><rect x="0" y="704" width="64" height="32" fill="#3fae46"/><rect x="64" y="704" width="32" height="32" fill="#ffffff"/><rect x="96" y="704" width="64" height="32" fill="#3fae46"/><rect x="160" y="704" width="128" height="32" fill="#7fd0ff"/><rect x="288" y="704" width="32" height="32" fill="#c98a52"/><rect x="320" y="704" width="96" height="32" fill="#3fae46"/><rect x="416" y="704" width="160" height="32" fill="#ffffff"/><rect x="576" y="704" width="32" height="32" fill="#7a3e13"/><rect x="608" y="704" width="160" height="32" fill="#3fae46"/><rect x="768" y="704" width="64" height="32" fill="#c98a52"/><rect x="832" y="704" width="96" height="32" fill="#3fae46"/><rect x="928" y="704" width="32" height="32" fill="#ffffff"/><rect x="960" y="704" width="64" height="32" fill="#3fae46"/><rect x="0" y="736" width="64" height="32" fill="#3fae46"/><rect x="64" y="736" width="32" height="32" fill="#ffffff"/><rect x="96" y="736" width="32" height="32" fill="#3fae46"/><rect x="128" y="736" width="160" height="32" fill="#7fd0ff"/><rect x="288" y="736" width="160" height="32" fill="#3fae46"/><rect x="448" y="736" width="128" height="32" fill="#ffffff"/><rect x="576" y="736" width="32" height="32" fill="#7a3e13"/><rect x="608" y="736" width="96" height="32" fill="#3fae46"/><rect x="704" y="736" width="32" height="32" fill="#c98a52"/><rect x="736" y="736" width="128" height="32" fill="#7fd0ff"/><rect x="864" y="736" width="64" height="32" fill="#3fae46"/><rect x="928" y="736" width="32" height="32" fill="#ffffff"/><rect x="960" y="736" width="64" height="32" fill="#3fae46"/><rect x="0" y="768" width="64" height="32" fill="#3fae46"/><rect x="64" y="768" width="32" height="32" fill="#ffffff"/><rect x="96" y="768" width="64" height="32" fill="#3fae46"/><rect x="160" y="768" width="128" height="32" fill="#7fd0ff"/><rect x="288" y="768" width="160" height="32" fill="#3fae46"/><rect x="448" y="768" width="64" height="32" fill="#d32f2f"/><rect x="512" y="768" width="32" height="32" fill="#3fae46"/><rect x="544" y="768" width="32" height="32" fill="#d32f2f"/><rect x="576" y="768" width="160" height="32" fill="#3fae46"/><rect x="736" y="768" width="160" height="32" fill="#7fd0ff"/><rect x="896" y="768" width="32" height="32" fill="#3fae46"/><rect x="928" y="768" width="32" height="32" fill="#ffffff"/><rect x="960" y="768" width="64" height="32" fill="#3fae46"/><rect x="0" y="800" width="64" height="32" fill="#3fae46"/><rect x="64" y="800" width="32" height="32" fill="#ffffff"/><rect x="96" y="800" width="96" height="32" fill="#3fae46"/><rect x="192" y="800" width="64" height="32" fill="#ffffff"/><rect x="256" y="800" width="192" height="32" fill="#3fae46"/><rect x="448" y="800" width="32" height="32" fill="#d32f2f"/><rect x="480" y="800" width="32" height="32" fill="#ffffff"/><rect x="512" y="800" width="32" height="32" fill="#3fae46"/><rect x="544" y="800" width="32" height="32" fill="#d32f2f"/><rect x="576" y="800" width="160" height="32" fill="#3fae46"/><rect x="736" y="800" width="128" height="32" fill="#7fd0ff"/><rect x="864" y="800" width="64" height="32" fill="#3fae46"/><rect x="928" y="800" width="32" height="32" fill="#ffffff"/><rect x="960" y="800" width="64" height="32" fill="#3fae46"/><rect x="0" y="832" width="64" height="32" fill="#3fae46"/><rect x="64" y="832" width="32" height="32" fill="#ffffff"/><rect x="96" y="832" width="64" height="32" fill="#3fae46"/><rect x="160" y="832" width="32" height="32" fill="#ffffff"/><rect x="192" y="832" width="64" height="32" fill="#3fae46"/><rect x="256" y="832" width="32" height="32" fill="#ffffff"/><rect x="288" y="832" width="128" height="32" fill="#3fae46"/><rect x="416" y="832" width="64" height="32" fill="#111111"/><rect x="480" y="832" width="32" height="32" fill="#ffffff"/><rect x="512" y="832" width="64" height="32" fill="#3fae46"/><rect x="576" y="832" width="32" height="32" fill="#111111"/><rect x="608" y="832" width="160" height="32" fill="#3fae46"/><rect x="768" y="832" width="64" height="32" fill="#ffffff"/><rect x="832" y="832" width="96" height="32" fill="#3fae46"/><rect x="928" y="832" width="32" height="32" fill="#ffffff"/><rect x="960" y="832" width="64" height="32" fill="#3fae46"/><rect x="0" y="864" width="64" height="32" fill="#3fae46"/><rect x="64" y="864" width="32" height="32" fill="#ffffff"/><rect x="96" y="864" width="32" height="32" fill="#3fae46"/><rect x="128" y="864" width="32" height="32" fill="#111111"/><rect x="160" y="864" width="128" height="32" fill="#3fae46"/><rect x="288" y="864" width="32" height="32" fill="#111111"/><rect x="320" y="864" width="96" height="32" fill="#3fae46"/><rect x="416" y="864" width="192" height="32" fill="#1e6b26"/><rect x="608" y="864" width="128" height="32" fill="#3fae46"/><rect x="736" y="864" width="32" height="32" fill="#ffffff"/><rect x="768" y="864" width="64" height="32" fill="#3fae46"/><rect x="832" y="864" width="32" height="32" fill="#ffffff"/><rect x="864" y="864" width="64" height="32" fill="#3fae46"/><rect x="928" y="864" width="32" height="32" fill="#ffffff"/><rect x="960" y="864" width="64" height="32" fill="#3fae46"/><rect x="0" y="896" width="64" height="32" fill="#3fae46"/><rect x="64" y="896" width="32" height="32" fill="#ffffff"/><rect x="96" y="896" width="32" height="32" fill="#3fae46"/><rect x="128" y="896" width="192" height="32" fill="#1e6b26"/><rect x="320" y="896" width="128" height="32" fill="#3fae46"/><rect x="448" y="896" width="128" height="32" fill="#1e6b26"/><rect x="576" y="896" width="128" height="32" fill="#3fae46"/><rect x="704" y="896" width="32" height="32" fill="#111111"/><rect x="736" y="896" width="128" height="32" fill="#3fae46"/><rect x="864" y="896" width="32" height="32" fill="#111111"/><rect x="896" y="896" width="32" height="32" fill="#3fae46"/><rect x="928" y="896" width="32" height="32" fill="#ffffff"/><rect x="960" y="896" width="64" height="32" fill="#3fae46"/><rect x="0" y="928" width="64" height="32" fill="#3fae46"/><rect x="64" y="928" width="32" height="32" fill="#ffffff"/><rect x="96" y="928" width="64" height="32" fill="#3fae46"/><rect x="160" y="928" width="128" height="32" fill="#1e6b26"/><rect x="288" y="928" width="192" height="32" fill="#3fae46"/><rect x="480" y="928" width="32" height="32" fill="#ffffff"/><rect x="512" y="928" width="192" height="32" fill="#3fae46"/><rect x="704" y="928" width="192" height="32" fill="#1e6b26"/><rect x="896" y="928" width="32" height="32" fill="#3fae46"/><rect x="928" y="928" width="32" height="32" fill="#ffffff"/><rect x="960" y="928" width="64" height="32" fill="#3fae46"/><rect x="0" y="960" width="64" height="32" fill="#3fae46"/><rect x="64" y="960" width="32" height="32" fill="#ffffff"/><rect x="96" y="960" width="384" height="32" fill="#3fae46"/><rect x="480" y="960" width="32" height="32" fill="#ffffff"/><rect x="512" y="960" width="224" height="32" fill="#3fae46"/><rect x="736" y="960" width="128" height="32" fill="#1e6b26"/><rect x="864" y="960" width="64" height="32" fill="#3fae46"/><rect x="928" y="960" width="32" height="32" fill="#ffffff"/><rect x="960" y="960" width="64" height="32" fill="#3fae46"/><rect x="0" y="992" width="64" height="32" fill="#3fae46"/><rect x="64" y="992" width="32" height="32" fill="#ffffff"/><rect x="96" y="992" width="384" height="32" fill="#3fae46"/><rect x="480" y="992" width="32" height="32" fill="#ffffff"/><rect x="512" y="992" width="416" height="32" fill="#3fae46"/><rect x="928" y="992" width="32" height="32" fill="#ffffff"/><rect x="960" y="992" width="64" height="32" fill="#3fae46"/><rect x="40" y="520" width="18" height="6" fill="#ffffff"/><rect x="116" y="520" width="18" height="6" fill="#ffffff"/><rect x="192" y="520" width="18" height="6" fill="#ffffff"/><rect x="268" y="520" width="18" height="6" fill="#ffffff"/><rect x="344" y="520" width="18" height="6" fill="#ffffff"/><rect x="420" y="520" width="18" height="6" fill="#ffffff"/><rect x="572" y="520" width="18" height="6" fill="#ffffff"/><rect x="648" y="520" width="18" height="6" fill="#ffffff"/><rect x="724" y="520" width="18" height="6" fill="#ffffff"/><rect x="800" y="520" width="18" height="6" fill="#ffffff"/><rect x="876" y="520" width="18" height="6" fill="#ffffff"/><rect x="40" y="960" width="18" height="6" fill="#ffffff"/><rect x="116" y="960" width="18" height="6" fill="#ffffff"/><rect x="192" y="960" width="18" height="6" fill="#ffffff"/><rect x="268" y="960" width="18" height="6" fill="#ffffff"/><rect x="344" y="960" width="18" height="6" fill="#ffffff"/><rect x="420" y="960" width="18" height="6" fill="#ffffff"/><rect x="572" y="960" width="18" height="6" fill="#ffffff"/><rect x="648" y="960" width="18" height="6" fill="#ffffff"/><rect x="724" y="960" width="18" height="6" fill="#ffffff"/><rect x="800" y="960" width="18" height="6" fill="#ffffff"/><rect x="876" y="960" width="18" height="6" fill="#ffffff"/></svg>